<svg width="1600" height="560" viewBox="0 0 1600 560" fill="none" xmlns="http://www.w3.org/2000/svg">
  <rect width="1600" height="560" rx="36" fill="#0B0F19"/>
  <g opacity="0.95" filter="url(#blurA)">
    <ellipse cx="370" cy="148" rx="288" ry="146" fill="#4F8CFF"/>
    <ellipse cx="1210" cy="164" rx="316" ry="152" fill="#FF5FA2"/>
    <ellipse cx="885" cy="404" rx="418" ry="184" fill="#1CB5B2"/>
  </g>
  <g opacity="0.18">
    <path d="M80 120H1520" stroke="white"/>
    <path d="M80 200H1520" stroke="white"/>
    <path d="M80 280H1520" stroke="white"/>
    <path d="M80 360H1520" stroke="white"/>
    <path d="M80 440H1520" stroke="white"/>
    <path d="M240 48V512" stroke="white"/>
    <path d="M480 48V512" stroke="white"/>
    <path d="M720 48V512" stroke="white"/>
    <path d="M960 48V512" stroke="white"/>
    <path d="M1200 48V512" stroke="white"/>
    <path d="M1440 48V512" stroke="white"/>
  </g>
  <g opacity="0.86">
    <rect x="112" y="104" width="432" height="132" rx="18" fill="rgba(255,255,255,0.08)"/>
    <rect x="112" y="104" width="432" height="132" rx="18" stroke="rgba(255,255,255,0.16)"/>
    <rect x="580" y="290" width="364" height="96" rx="18" fill="rgba(255,255,255,0.08)"/>
    <rect x="580" y="290" width="364" height="96" rx="18" stroke="rgba(255,255,255,0.16)"/>
    <rect x="1016" y="124" width="472" height="160" rx="18" fill="rgba(255,255,255,0.08)"/>
    <rect x="1016" y="124" width="472" height="160" rx="18" stroke="rgba(255,255,255,0.16)"/>
    <rect x="986" y="334" width="352" height="108" rx="18" fill="rgba(255,255,255,0.08)"/>
    <rect x="986" y="334" width="352" height="108" rx="18" stroke="rgba(255,255,255,0.16)"/>
  </g>
  <defs>
    <filter id="blurA" x="-68" y="-138" width="1942" height="834" filterUnits="userSpaceOnUse" color-interpolation-filters="sRGB">
      <feFlood flood-opacity="0" result="BackgroundImageFix"/>
      <feBlend mode="normal" in="SourceGraphic" in2="BackgroundImageFix" result="shape"/>
      <feGaussianBlur stdDeviation="74" result="effect1_foregroundBlur_1_1"/>
    </filter>
  </defs>
</svg>
